<svg xmlns="http://www.w3.org/2000/svg" width="32" height="32" viewBox="0 0 32 32">
  <defs>
    <linearGradient id="cloudGradient" x1="0%" y1="0%" x2="100%" y2="100%">
      <stop offset="0%" style="stop-color:#3b82f6;stop-opacity:1" />
      <stop offset="100%" style="stop-color:#1d4ed8;stop-opacity:1" />
    </linearGradient>
  </defs>
  <rect width="32" height="32" fill="#0f172a"/>
  <path d="M24.5 19c1.4 0 2.5-1.1 2.5-2.5 0-1.1-.7-2.1-1.7-2.4-.1-2.4-2.1-4.3-4.5-4.3-1.6 0-3 .8-3.8 2.1-.4-.1-.8-.2-1.2-.2-2.2 0-4 1.8-4 4 0 .3 0 .6.1.9C10.4 16.8 9.5 18 9.5 19.5c0 1.9 1.6 3.5 3.5 3.5h11.5c1.4 0 2.5-1.1 2.5-2.5s-1.1-2.5-2.5-2.5z" fill="url(#cloudGradient)"/>
</svg>
